solid SamplePart
  facet normal 0 0 1
    outer loop
      vertex -25.0 -15.0 0.0
      vertex 25.0 -15.0 0.0
      vertex 25.0 15.0 0.0
    endloop
  endfacet
  facet normal 0 0 1
    outer loop
      vertex -25.0 -15.0 0.0
      vertex 25.0 15.0 0.0
      vertex -25.0 15.0 0.0
    endloop
  endfacet
  facet normal 0 0 -1
    outer loop
      vertex -25.0 -15.0 -10.0
      vertex 25.0 15.0 -10.0
      vertex 25.0 -15.0 -10.0
    endloop
  endfacet
  facet normal 0 0 -1
    outer loop
      vertex -25.0 -15.0 -10.0
      vertex -25.0 15.0 -10.0
      vertex 25.0 15.0 -10.0
    endloop
  endfacet
  facet normal 0 -1 0
    outer loop
      vertex -25.0 -15.0 -10.0
      vertex 25.0 -15.0 -10.0
      vertex 25.0 -15.0 0.0
    endloop
  endfacet
  facet normal 0 -1 0
    outer loop
      vertex -25.0 -15.0 -10.0
      vertex 25.0 -15.0 0.0
      vertex -25.0 -15.0 0.0
    endloop
  endfacet
  facet normal 0 1 0
    outer loop
      vertex -25.0 15.0 -10.0
      vertex 25.0 15.0 0.0
      vertex 25.0 15.0 -10.0
    endloop
  endfacet
  facet normal 0 1 0
    outer loop
      vertex -25.0 15.0 -10.0
      vertex -25.0 15.0 0.0
      vertex 25.0 15.0 0.0
    endloop
  endfacet
  facet normal -1 0 0
    outer loop
      vertex -25.0 -15.0 -10.0
      vertex -25.0 15.0 0.0
      vertex -25.0 15.0 -10.0
    endloop
  endfacet
  facet normal -1 0 0
    outer loop
      vertex -25.0 -15.0 -10.0
      vertex -25.0 -15.0 0.0
      vertex -25.0 15.0 0.0
    endloop
  endfacet
  facet normal 1 0 0
    outer loop
      vertex 25.0 -15.0 -10.0
      vertex 25.0 15.0 -10.0
      vertex 25.0 15.0 0.0
    endloop
  endfacet
  facet normal 1 0 0
    outer loop
      vertex 25.0 -15.0 -10.0
      vertex 25.0 15.0 0.0
      vertex 25.0 -15.0 0.0
    endloop
  endfacet
endsolid SamplePart
